<svg width="30" height="30" viewBox="0 0 30 30" fill="none" xmlns="http://www.w3.org/2000/svg">
<path d="M5.625 8.74999L2.5 12.5437C2.5 12.5437 3.65625 16.8969 6.875 20C13.0563 25.9581 22.0838 22.0644 25.625 19.375C28.9731 16.6437 27.3231 16.0425 26.25 16.25L23.125 16.875C28.7906 7.93687 27.2344 6.98249 25.625 7.49999L20 9.99999C16.3944 11.9856 14.6875 10.9375 13.75 9.99999L11.875 8.12499C9.0625 5.62499 6.26875 8.02499 5.625 8.74999Z" stroke="black" stroke-width="2" stroke-linecap="round" stroke-linejoin="round"/>
<path d="M8.75 13.75C9.44036 13.75 10 13.1904 10 12.5C10 11.8096 9.44036 11.25 8.75 11.25C8.05964 11.25 7.5 11.8096 7.5 12.5C7.5 13.1904 8.05964 13.75 8.75 13.75Z" fill="black"/>
</svg>
