<svg width="25" height="25" viewBox="0 0 25 25" fill="none" xmlns="http://www.w3.org/2000/svg">
<path d="M8.56104 3.48633H5.56104C5.0306 3.48633 4.52189 3.69704 4.14682 4.07211C3.77175 4.44719 3.56104 4.9559 3.56104 5.48633V8.48633M21.561 8.48633V5.48633C21.561 4.9559 21.3503 4.44719 20.9752 4.07211C20.6002 3.69704 20.0915 3.48633 19.561 3.48633H16.561M16.561 21.4863H19.561C20.0915 21.4863 20.6002 21.2756 20.9752 20.9005C21.3503 20.5255 21.561 20.0168 21.561 19.4863V16.4863M3.56104 16.4863V19.4863C3.56104 20.0168 3.77175 20.5255 4.14682 20.9005C4.52189 21.2756 5.0306 21.4863 5.56104 21.4863H8.56104" stroke="white" stroke-width="2" stroke-linecap="round" stroke-linejoin="round"/>
</svg>
